{
	"asset":
	{
		"version": "2.0",
		"generator": "Unreal Engine 5.4.4"
	},
	"scene": 0,
	"accessors": [
		{
			"bufferView": 0,
			"count": 336183,
			"type": "SCALAR",
			"componentType": 5125
		},
		{
			"bufferView": 1,
			"count": 331791,
			"type": "VEC3",
			"componentType": 5126,
			"min": [ -123.304955, -2.87023306, -123.391411 ],
			"max": [ 161.874069, 13.8683138, 164.518661 ]
		},
		{
			"bufferView": 2,
			"count": 331791,
			"type": "VEC3",
			"componentType": 5126
		},
		{
			"bufferView": 3,
			"count": 331791,
			"type": "VEC4",
			"componentType": 5126
		},
		{
			"bufferView": 4,
			"count": 331791,
			"type": "VEC2",
			"componentType": 5126
		},
		{
			"bufferView": 5,
			"count": 331791,
			"type": "VEC2",
			"componentType": 5126
		}
	],
	"buffers": [
		{
			"uri": "SM_Ground.bin",
			"byteLength": 19925028
		}
	],
	"bufferViews": [
		{
			"buffer": 0,
			"byteLength": 1344732,
			"target": 34963
		},
		{
			"buffer": 0,
			"byteLength": 3981492,
			"byteOffset": 1344732,
			"target": 34962
		},
		{
			"buffer": 0,
			"byteLength": 3981492,
			"byteOffset": 5326224,
			"target": 34962
		},
		{
			"buffer": 0,
			"byteLength": 5308656,
			"byteOffset": 9307716,
			"target": 34962
		},
		{
			"buffer": 0,
			"byteLength": 2654328,
			"byteOffset": 14616372,
			"target": 34962
		},
		{
			"buffer": 0,
			"byteLength": 2654328,
			"byteOffset": 17270700,
			"target": 34962
		}
	],
	"images": [
		{
			"uri": "MI_Base_BaseColor.png"
		}
	],
	"materials": [
		{
			"name": "MI_Base",
			"pbrMetallicRoughness":
			{
				"baseColorTexture":
				{
					"index": 0
				},
				"metallicFactor": 0
			}
		}
	],
	"meshes": [
		{
			"name": "SM_Ground",
			"primitives": [
				{
					"attributes":
					{
						"POSITION": 1,
						"NORMAL": 2,
						"TANGENT": 3,
						"TEXCOORD_0": 4,
						"TEXCOORD_1": 5
					},
					"indices": 0,
					"material": 0
				}
			]
		}
	],
	"nodes": [
		{
			"mesh": 0
		}
	],
	"samplers": [
		{
			"minFilter": 9987,
			"magFilter": 9729
		}
	],
	"scenes": [
		{
			"nodes": [ 0 ]
		}
	],
	"textures": [
		{
			"name": "MI_Base_BaseColor",
			"sampler": 0,
			"source": 0
		}
	]
}